<svg xmlns="http://www.w3.org/2000/svg" viewBox="0 0 1200 750" width="1200" height="750" role="img" aria-labelledby="t-firma-electronica d-firma-electronica">
<title id="t-firma-electronica">Firma electrónica</title>
<desc id="d-firma-electronica">Documento validado mediante firma electrónica avanzada y su sello de verificación.</desc>
<rect width="1200" height="750" fill="#063b5c"/>
<g stroke="#ffffff14" stroke-width="1" fill="none"><path d="M50 0V750"/><path d="M100 0V750"/><path d="M150 0V750"/><path d="M200 0V750"/><path d="M250 0V750"/><path d="M300 0V750"/><path d="M350 0V750"/><path d="M400 0V750"/><path d="M450 0V750"/><path d="M500 0V750"/><path d="M550 0V750"/><path d="M600 0V750"/><path d="M650 0V750"/><path d="M700 0V750"/><path d="M750 0V750"/><path d="M800 0V750"/><path d="M850 0V750"/><path d="M900 0V750"/><path d="M950 0V750"/><path d="M1000 0V750"/><path d="M1050 0V750"/><path d="M1100 0V750"/><path d="M1150 0V750"/><path d="M0 50H1200"/><path d="M0 100H1200"/><path d="M0 150H1200"/><path d="M0 200H1200"/><path d="M0 250H1200"/><path d="M0 300H1200"/><path d="M0 350H1200"/><path d="M0 400H1200"/><path d="M0 450H1200"/><path d="M0 500H1200"/><path d="M0 550H1200"/><path d="M0 600H1200"/><path d="M0 650H1200"/><path d="M0 700H1200"/></g>
<path d="M0 640 C 200 606, 360 670, 560 634 S 940 588, 1200 620 L1200 750 L0 750Z" fill="#032f4c"/>
<path d="M0 640 C 200 606, 360 670, 560 634 S 940 588, 1200 620" fill="none" stroke="#0a6fa4" stroke-width="3" opacity=".85"/>
<rect x="310" y="140" width="420" height="470" rx="10" fill="#f7fafb"/><rect x="360.4" y="235.98285714285714" width="319.2" height="9" rx="4.5" fill="#cddde4"/><rect x="360.4" y="291.60571428571427" width="261.74399999999997" height="9" rx="4.5" fill="#cddde4"/><rect x="360.4" y="347.22857142857146" width="319.2" height="9" rx="4.5" fill="#cddde4"/><rect x="360.4" y="402.8514285714286" width="261.74399999999997" height="9" rx="4.5" fill="#cddde4"/><rect x="360.4" y="458.4742857142857" width="319.2" height="9" rx="4.5" fill="#cddde4"/><rect x="360.4" y="514.0971428571429" width="175.56" height="9" rx="4.5" fill="#cddde4"/>
<path d="M360 500 C 410 452, 448 552, 498 486 S 592 430, 646 480" fill="none" stroke="#39c9c4" stroke-width="8" stroke-linecap="round" stroke-linejoin="round"/>
<circle cx="820" cy="360" r="106" fill="none" stroke="#13a6a6" stroke-width="6" stroke-dasharray="14 11"/>
<circle cx="820" cy="360" r="76" fill="#13a6a6"/>
<path d="M786 360 l24 26 46 -54" fill="none" stroke="#032f4c" stroke-width="10" stroke-linecap="round" stroke-linejoin="round"/>
</svg>
