<svg xmlns="http://www.w3.org/2000/svg" viewBox="0 0 1200 750" width="1200" height="750" role="img" aria-labelledby="t-identidad-digital-claveunica d-identidad-digital-claveunica">
<title id="t-identidad-digital-claveunica">Identidad digital y ClaveÚnica</title>
<desc id="d-identidad-digital-claveunica">Credencial de identidad digital con la que una persona accede a los servicios del Estado.</desc>
<rect width="1200" height="750" fill="#063b5c"/>
<g stroke="#ffffff14" stroke-width="1" fill="none"><path d="M50 0V750"/><path d="M100 0V750"/><path d="M150 0V750"/><path d="M200 0V750"/><path d="M250 0V750"/><path d="M300 0V750"/><path d="M350 0V750"/><path d="M400 0V750"/><path d="M450 0V750"/><path d="M500 0V750"/><path d="M550 0V750"/><path d="M600 0V750"/><path d="M650 0V750"/><path d="M700 0V750"/><path d="M750 0V750"/><path d="M800 0V750"/><path d="M850 0V750"/><path d="M900 0V750"/><path d="M950 0V750"/><path d="M1000 0V750"/><path d="M1050 0V750"/><path d="M1100 0V750"/><path d="M1150 0V750"/><path d="M0 50H1200"/><path d="M0 100H1200"/><path d="M0 150H1200"/><path d="M0 200H1200"/><path d="M0 250H1200"/><path d="M0 300H1200"/><path d="M0 350H1200"/><path d="M0 400H1200"/><path d="M0 450H1200"/><path d="M0 500H1200"/><path d="M0 550H1200"/><path d="M0 600H1200"/><path d="M0 650H1200"/><path d="M0 700H1200"/></g>
<path d="M0 648 C 200 614, 360 678, 560 642 S 940 596, 1200 628 L1200 750 L0 750Z" fill="#032f4c"/>
<path d="M0 648 C 200 614, 360 678, 560 642 S 940 596, 1200 628" fill="none" stroke="#0a6fa4" stroke-width="3" opacity=".85"/>
<rect x="250" y="200" width="460" height="300" rx="22" fill="#f7fafb"/>
<circle cx="350" cy="300" r="44" fill="#cddde4"/>
<path d="M306 380a44 46 0 0 1 88 0z" fill="#cddde4"/>
<path d="M440 276 H660" fill="none" stroke="#cddde4" stroke-width="11" stroke-linecap="round" stroke-linejoin="round"/>
<path d="M440 326 H600" fill="none" stroke="#cddde4" stroke-width="11" stroke-linecap="round" stroke-linejoin="round"/>
<rect x="440" y="380" width="220" height="14" rx="7" fill="#13a6a6"/>
<rect x="290" y="424" width="380" height="14" rx="7" fill="#cddde4"/>
<g transform="translate(800 220)">
<path d="M40 120v-42a60 60 0 0 1 120 0v42" fill="none" stroke="#13a6a6" stroke-width="22"/>
<rect x="0" y="120" width="200" height="170" rx="20" fill="#13a6a6"/>
<circle cx="100" cy="196" r="20" fill="#032f4c"/>
<rect x="90" y="206" width="20" height="42" rx="10" fill="#032f4c"/>
</g>
</svg>
